<svg width="40" height="40" viewBox="0 0 40 40" fill="none" xmlns="http://www.w3.org/2000/svg">
<g clip-path="url(#clip0_1_10)">
<path d="M30.3592 21.5306C29.5437 19.9118 28.3298 18.4139 26.5331 17.3518C26.3445 17.2408 26.2922 16.9959 26.4327 16.8286C27.3437 15.7412 30.2441 12.0384 30.2441 8.97959C30.2441 4.02041 26.2237 0 21.2645 0C16.3053 0 12.2849 4.02041 12.2849 8.97959C12.2849 13.8776 16.3731 16.3657 17.0792 17.0449C17.1494 17.1118 17.1853 17.1967 17.1837 17.2939C17.1739 18.1224 16.9045 22.0237 12.6678 20.5469C11.5265 20.1494 10.5127 19.4522 9.65878 18.5984L4.80653 13.7469C4.42367 13.3641 3.7951 13.4131 3.47265 13.849C2.38367 15.3208 0.351837 18.7894 0.855511 23.6735C0.855511 23.6735 1.15429 36.8873 10.3282 39.6033C11.3151 39.8955 12.3478 40 13.3763 40H18.9747C21.3045 40 23.5829 39.3233 25.5273 38.0392C25.5951 37.9943 25.6629 37.9494 25.7314 37.9037C31.0898 34.2996 33.2653 27.2971 30.3592 21.5306Z" fill="#14B8A6"/>
<path d="M38.8065 8.16326H32.1078H30.2016C30.2261 8.43265 30.2425 8.70367 30.2425 8.97959C30.2425 10.8988 29.1012 13.0702 28.0253 14.6914V14.6939H32.818C33.5739 14.6939 34.3314 14.5159 34.9665 14.1053C37.0629 12.7518 38.5861 9.97142 39.1796 8.7551C39.3151 8.48081 39.1118 8.16326 38.8065 8.16326Z" fill="#0F766E"/>
<path d="M22.8963 10.6122C24.6997 10.6122 26.1616 9.15031 26.1616 7.34693C26.1616 5.54355 24.6997 4.08163 22.8963 4.08163C21.0929 4.08163 19.631 5.54355 19.631 7.34693C19.631 9.15031 21.0929 10.6122 22.8963 10.6122Z" fill="white"/>
<path d="M24.529 9.79592C25.4307 9.79592 26.1616 9.06495 26.1616 8.16326C26.1616 7.26157 25.4307 6.53061 24.529 6.53061C23.6273 6.53061 22.8963 7.26157 22.8963 8.16326C22.8963 9.06495 23.6273 9.79592 24.529 9.79592Z" fill="#2C2F38"/>
<path d="M16.7469 24.3975C22.2351 21.6114 22.8963 27.7649 22.8963 27.7649C22.8963 34.9078 17.182 34.2955 17.182 34.2955C12.3273 34.2955 9.88979 29.178 9.21633 27.4849C9.10367 27.2024 9.27428 26.8914 9.57061 26.8253L9.87837 26.7567C12.2498 26.2302 14.582 25.4963 16.7469 24.3975Z" fill="#0F766E"/>
</g>
<defs>
<clipPath id="clip0_1_10">
<rect width="40" height="40" fill="white"/>
</clipPath>
</defs>
</svg>
