<svg width="100" height="50" viewBox="0 0 100 50" fill="none" xmlns="http://www.w3.org/2000/svg">
<rect width="100" height="50" fill="white"/>
<g clip-path="url(#clip0_1_2)">
<path d="M32.3592 26.5306C31.5437 24.9118 30.3298 23.4139 28.5331 22.3518C28.3445 22.2408 28.2922 21.9959 28.4327 21.8286C29.3437 20.7412 32.2441 17.0384 32.2441 13.9796C32.2441 9.02041 28.2237 5 23.2645 5C18.3053 5 14.2849 9.02041 14.2849 13.9796C14.2849 18.8776 18.3731 21.3657 19.0792 22.0449C19.1494 22.1118 19.1853 22.1967 19.1837 22.2939C19.1739 23.1224 18.9045 27.0237 14.6678 25.5469C13.5265 25.1494 12.5127 24.4522 11.6588 23.5984L6.80653 18.7469C6.42367 18.3641 5.7951 18.4131 5.47265 18.849C4.38367 20.3208 2.35184 23.7894 2.85551 28.6735C2.85551 28.6735 3.15429 41.8873 12.3282 44.6033C13.3151 44.8955 14.3478 45 15.3763 45H20.9747C23.3045 45 25.5829 44.3233 27.5273 43.0392C27.5951 42.9943 27.6629 42.9494 27.7314 42.9037C33.0898 39.2996 35.2653 32.2971 32.3592 26.5306Z" fill="#14B8A6"/>
<path d="M40.8065 13.1633H34.1078H32.2016C32.2261 13.4326 32.2425 13.7037 32.2425 13.9796C32.2425 15.8988 31.1012 18.0702 30.0253 19.6914V19.6939H34.818C35.5739 19.6939 36.3314 19.5159 36.9665 19.1053C39.0629 17.7518 40.5861 14.9714 41.1796 13.7551C41.3151 13.4808 41.1118 13.1633 40.8065 13.1633Z" fill="#0F766E"/>
<path d="M24.8963 15.6122C26.6997 15.6122 28.1616 14.1503 28.1616 12.3469C28.1616 10.5436 26.6997 9.08163 24.8963 9.08163C23.0929 9.08163 21.631 10.5436 21.631 12.3469C21.631 14.1503 23.0929 15.6122 24.8963 15.6122Z" fill="white"/>
<path d="M26.529 14.7959C27.4307 14.7959 28.1616 14.065 28.1616 13.1633C28.1616 12.2616 27.4307 11.5306 26.529 11.5306C25.6273 11.5306 24.8963 12.2616 24.8963 13.1633C24.8963 14.065 25.6273 14.7959 26.529 14.7959Z" fill="#2C2F38"/>
<path d="M18.7469 29.3975C24.2351 26.6114 24.8963 32.7649 24.8963 32.7649C24.8963 39.9078 19.182 39.2955 19.182 39.2955C14.3273 39.2955 11.8898 34.178 11.2163 32.4849C11.1037 32.2024 11.2743 31.8914 11.5706 31.8253L11.8784 31.7567C14.2498 31.2302 16.582 30.4963 18.7469 29.3975Z" fill="#0F766E"/>
</g>
<path d="M58.2852 15.9375V33H56.0586V15.9375H58.2852ZM63.7695 15.9375V17.7891H50.5859V15.9375H63.7695ZM70.0625 33.2344C69.1797 33.2344 68.3789 33.0859 67.6602 32.7891C66.9492 32.4844 66.3359 32.0586 65.8203 31.5117C65.3125 30.9648 64.9219 30.3164 64.6484 29.5664C64.375 28.8164 64.2383 27.9961 64.2383 27.1055V26.6133C64.2383 25.582 64.3906 24.6641 64.6953 23.8594C65 23.0469 65.4141 22.3594 65.9375 21.7969C66.4609 21.2344 67.0547 20.8086 67.7188 20.5195C68.3828 20.2305 69.0703 20.0859 69.7812 20.0859C70.6875 20.0859 71.4688 20.2422 72.125 20.5547C72.7891 20.8672 73.332 21.3047 73.7539 21.8672C74.1758 22.4219 74.4883 23.0781 74.6914 23.8359C74.8945 24.5859 74.9961 25.4062 74.9961 26.2969V27.2695H65.5273V25.5H72.8281V25.3359C72.7969 24.7734 72.6797 24.2266 72.4766 23.6953C72.2812 23.1641 71.9688 22.7266 71.5391 22.3828C71.1094 22.0391 70.5234 21.8672 69.7812 21.8672C69.2891 21.8672 68.8359 21.9727 68.4219 22.1836C68.0078 22.3867 67.6523 22.6914 67.3555 23.0977C67.0586 23.5039 66.8281 24 66.6641 24.5859C66.5 25.1719 66.418 25.8477 66.418 26.6133V27.1055C66.418 27.707 66.5 28.2734 66.6641 28.8047C66.8359 29.3281 67.082 29.7891 67.4023 30.1875C67.7305 30.5859 68.125 30.8984 68.5859 31.125C69.0547 31.3516 69.5859 31.4648 70.1797 31.4648C70.9453 31.4648 71.5938 31.3086 72.125 30.9961C72.6562 30.6836 73.1211 30.2656 73.5195 29.7422L74.832 30.7852C74.5586 31.1992 74.2109 31.5938 73.7891 31.9688C73.3672 32.3438 72.8477 32.6484 72.2305 32.8828C71.6211 33.1172 70.8984 33.2344 70.0625 33.2344ZM85.0039 30.832V24.3047C85.0039 23.8047 84.9023 23.3711 84.6992 23.0039C84.5039 22.6289 84.207 22.3398 83.8086 22.1367C83.4102 21.9336 82.918 21.832 82.332 21.832C81.7852 21.832 81.3047 21.9258 80.8906 22.1133C80.4844 22.3008 80.1641 22.5469 79.9297 22.8516C79.7031 23.1562 79.5898 23.4844 79.5898 23.8359H77.4219C77.4219 23.3828 77.5391 22.9336 77.7734 22.4883C78.0078 22.043 78.3438 21.6406 78.7812 21.2812C79.2266 20.9141 79.7578 20.625 80.375 20.4141C81 20.1953 81.6953 20.0859 82.4609 20.0859C83.3828 20.0859 84.1953 20.2422 84.8984 20.5547C85.6094 20.8672 86.1641 21.3398 86.5625 21.9727C86.9688 22.5977 87.1719 23.3828 87.1719 24.3281V30.2344C87.1719 30.6562 87.207 31.1055 87.2773 31.582C87.3555 32.0586 87.4688 32.4688 87.6172 32.8125V33H85.3555C85.2461 32.75 85.1602 32.418 85.0977 32.0039C85.0352 31.582 85.0039 31.1914 85.0039 30.832ZM85.3789 25.3125L85.4023 26.8359H83.2109C82.5938 26.8359 82.043 26.8867 81.5586 26.9883C81.0742 27.082 80.668 27.2266 80.3398 27.4219C80.0117 27.6172 79.7617 27.8633 79.5898 28.1602C79.418 28.4492 79.332 28.7891 79.332 29.1797C79.332 29.5781 79.4219 29.9414 79.6016 30.2695C79.7812 30.5977 80.0508 30.8594 80.4102 31.0547C80.7773 31.2422 81.2266 31.3359 81.7578 31.3359C82.4219 31.3359 83.0078 31.1953 83.5156 30.9141C84.0234 30.6328 84.4258 30.2891 84.7227 29.8828C85.0273 29.4766 85.1914 29.082 85.2148 28.6992L86.1406 29.7422C86.0859 30.0703 85.9375 30.4336 85.6953 30.832C85.4531 31.2305 85.1289 31.6133 84.7227 31.9805C84.3242 32.3398 83.8477 32.6406 83.293 32.8828C82.7461 33.1172 82.1289 33.2344 81.4414 33.2344C80.582 33.2344 79.8281 33.0664 79.1797 32.7305C78.5391 32.3945 78.0391 31.9453 77.6797 31.3828C77.3281 30.8125 77.1523 30.1758 77.1523 29.4727C77.1523 28.793 77.2852 28.1953 77.5508 27.6797C77.8164 27.1562 78.1992 26.7227 78.6992 26.3789C79.1992 26.0273 79.8008 25.7617 80.5039 25.582C81.207 25.4023 81.9922 25.3125 82.8594 25.3125H85.3789ZM92.9375 15V33H90.7578V15H92.9375Z" fill="#0F766E"/>
<defs>
<clipPath id="clip0_1_2">
<rect width="40" height="40" fill="white" transform="translate(2 5)"/>
</clipPath>
</defs>
</svg>
