<svg width="68" height="177" viewBox="0 0 68 177" fill="none" xmlns="http://www.w3.org/2000/svg">
<g clip-path="url(#clip0_2_4)">
<rect width="68" height="177" fill="#0F766E"/>
<g clip-path="url(#clip1_2_4)">
<path d="M45.6048 16.3271C45.3013 16.9493 45.1892 17.6474 45.2825 18.3334C45.3759 19.0193 45.6705 19.6621 46.1292 20.1805C46.5879 20.699 47.19 21.0698 47.8594 21.246C48.5289 21.4223 49.2355 21.3961 49.89 21.1707C50.5446 20.9453 51.1176 20.5309 51.5366 19.9799C51.9556 19.4289 52.2018 18.766 52.244 18.075C52.2863 17.3841 52.1227 16.6961 51.774 16.0982C51.4252 15.5002 50.907 15.0191 50.2849 14.7156C49.4505 14.3087 48.4888 14.2499 47.6111 14.5521C46.7334 14.8543 46.0117 15.4928 45.6048 16.3271ZM50.0987 18.5189C49.9687 18.7856 49.7625 19.0077 49.5062 19.1571C49.2499 19.3066 48.9551 19.3767 48.659 19.3586C48.3629 19.3405 48.0788 19.235 47.8426 19.0554C47.6065 18.8758 47.4289 18.6302 47.3323 18.3497C47.2357 18.0692 47.2245 17.7664 47.3 17.4795C47.3755 17.1926 47.5344 16.9345 47.7566 16.7379C47.9788 16.5414 48.2543 16.4151 48.5483 16.3751C48.8422 16.3351 49.1415 16.3831 49.4081 16.5132C49.7657 16.6876 50.0393 16.9969 50.1688 17.373C50.2984 17.7492 50.2731 18.1614 50.0987 18.5189ZM41.0791 33.5903C40.4569 33.2868 39.7587 33.1747 39.0728 33.268C38.3869 33.3614 37.744 33.656 37.2256 34.1147C36.7071 34.5734 36.3363 35.1755 36.1601 35.8449C35.9839 36.5144 36.0101 37.221 36.2354 37.8755C36.4608 38.5301 36.8752 39.1031 37.4262 39.5221C37.9773 39.9411 38.6401 40.1873 39.3311 40.2295C40.022 40.2718 40.71 40.1082 41.308 39.7595C41.9059 39.4107 42.3871 38.8925 42.6905 38.2704C43.0975 37.436 43.1563 36.4743 42.8541 35.5966C42.5519 34.7189 41.9134 33.9972 41.0791 33.5903ZM40.893 37.3936C40.7629 37.6603 40.5567 37.8824 40.3004 38.0318C40.0441 38.1813 39.7493 38.2514 39.4532 38.2333C39.1571 38.2151 38.873 38.1096 38.6368 37.9301C38.4007 37.7505 38.2231 37.5049 38.1265 37.2244C38.0299 36.9439 38.0187 36.641 38.0942 36.3542C38.1697 36.0673 38.3286 35.8092 38.5508 35.6126C38.773 35.416 39.0485 35.2898 39.3425 35.2498C39.6364 35.2097 39.9357 35.2578 40.2023 35.3879C40.5599 35.5623 40.8335 35.8716 40.963 36.2477C41.0926 36.6239 41.0673 37.036 40.893 37.3936ZM39.928 30.2474C40.2315 29.6252 40.3436 28.927 40.2503 28.2411C40.1569 27.5552 39.8623 26.9123 39.4036 26.3939C38.9449 25.8754 38.3428 25.5046 37.6733 25.3284C37.0039 25.1522 36.2973 25.1784 35.6427 25.4037C34.9882 25.6291 34.4152 26.0435 33.9962 26.5945C33.5772 27.1456 33.331 27.8084 33.2888 28.4994C33.2465 29.1903 33.4101 29.8783 33.7588 30.4763C34.1075 31.0742 34.6257 31.5554 35.2479 31.8588C36.0822 32.2658 37.044 32.3246 37.9217 32.0224C38.7994 31.7202 39.5211 31.0817 39.928 30.2474ZM35.434 28.0555C35.5641 27.7889 35.7703 27.5668 36.0266 27.4173C36.2828 27.2679 36.5777 27.1977 36.8738 27.2159C37.1699 27.234 37.454 27.3395 37.6902 27.5191C37.9263 27.6986 38.1039 27.9442 38.2005 28.2247C38.2971 28.5052 38.3083 28.8081 38.2328 29.095C38.1573 29.3819 37.9983 29.6399 37.7762 29.8365C37.554 30.0331 37.2785 30.1594 36.9845 30.1994C36.6905 30.2394 36.3913 30.1913 36.1247 30.0613C35.7671 29.8869 35.4935 29.5776 35.3639 29.2014C35.2344 28.8253 35.2596 28.4131 35.434 28.0555ZM43.8733 22.1582C44.1768 21.536 44.2889 20.8378 44.1956 20.1519C44.1022 19.466 43.8076 18.8232 43.3489 18.3047C42.8902 17.7863 42.2881 17.4155 41.6187 17.2393C40.9492 17.063 40.2426 17.0892 39.5881 17.3146C38.9336 17.54 38.3606 17.9544 37.9416 18.5054C37.5226 19.0564 37.2764 19.7193 37.2341 20.4102C37.1918 21.1012 37.3554 21.7891 37.7041 22.3871C38.0529 22.9851 38.5711 23.4662 39.1933 23.7697C40.0276 24.1766 40.9894 24.2354 41.8671 23.9332C42.7447 23.631 43.4664 22.9925 43.8733 22.1582ZM39.3794 19.9664C39.5094 19.6997 39.7156 19.4776 39.9719 19.3282C40.2282 19.1787 40.523 19.1086 40.8191 19.1267C41.1153 19.1448 41.3994 19.2503 41.6355 19.4299C41.8717 19.6095 42.0493 19.8551 42.1458 20.1356C42.2424 20.4161 42.2537 20.7189 42.1781 21.0058C42.1026 21.2927 41.9437 21.5508 41.7215 21.7473C41.4993 21.9439 41.2238 22.0702 40.9298 22.1102C40.6359 22.1502 40.3367 22.1022 40.07 21.9721C39.7124 21.7977 39.4388 21.4884 39.3093 21.1123C39.1798 20.7361 39.205 20.3239 39.3794 19.9664ZM51.9778 22.8956C51.5033 23.2293 50.9676 23.4662 50.4014 23.5926C49.8353 23.7191 49.2497 23.7326 48.6783 23.6325C47.5049 23.4301 46.2974 23.614 45.2374 24.1566C44.1774 24.6992 43.3221 25.5712 42.8001 26.6415C42.2781 27.7118 42.1175 28.9225 42.3426 30.0919C42.5676 31.2612 43.1661 32.326 44.048 33.1261C44.9154 33.9065 45.4379 34.999 45.5008 36.1641C45.5477 37.2752 45.9637 38.339 46.683 39.1872C47.4023 40.0353 48.3839 40.6195 49.4724 40.8472C50.5609 41.075 51.6943 40.9333 52.6933 40.4446C53.6923 39.956 54.4999 39.1482 54.9883 38.1491C55.2822 37.5509 55.4519 36.8994 55.4871 36.2339C55.6195 34.1219 56.5822 32.148 58.165 30.7434C59.1476 29.9043 59.7673 28.7173 59.894 27.4314C60.0207 26.1455 59.6447 24.8604 58.8447 23.8457C58.0448 22.8309 56.883 22.1652 55.6031 21.9882C54.3231 21.8112 53.0243 22.1366 51.9789 22.8962L51.9778 22.8956ZM57.5744 28.2844C57.3968 28.6495 57.1468 28.9747 56.8398 29.2403C54.8568 30.9982 53.6512 33.4701 53.4868 36.115C53.4502 36.889 53.1155 37.6189 52.5529 38.1517C51.9902 38.6846 51.2431 38.979 50.4682 38.9733C49.6933 38.9677 48.9507 38.6624 48.3958 38.1214C47.841 37.5804 47.517 36.8458 47.4917 36.0712C47.449 35.2309 47.2411 34.4073 46.8798 33.6474C46.5185 32.8874 46.011 32.2062 45.3863 31.6426C44.8246 31.1335 44.4434 30.4558 44.2999 29.7114C44.1565 28.9671 44.2586 28.1963 44.5909 27.5149C44.9233 26.8336 45.4678 26.2785 46.1427 25.9333C46.8175 25.588 47.5863 25.4712 48.3332 25.6004C49.1637 25.7457 50.0147 25.7257 50.8374 25.5415C51.6601 25.3574 52.4384 25.0127 53.1276 24.5273C53.6705 24.1359 54.3287 23.9372 54.9974 23.9629C55.6662 23.9886 56.3072 24.2372 56.8184 24.6691C57.3296 25.101 57.6818 25.6915 57.8187 26.3466C57.9557 27.0017 57.8697 27.6838 57.5744 28.2844Z" fill="white"/>
</g>
<g clip-path="url(#clip2_2_4)">
<path d="M30.4884 103.019L24.1616 112.248C24.0074 112.473 23.901 112.728 23.8487 112.995C23.7965 113.263 23.7995 113.539 23.8577 113.805C23.9159 114.072 24.028 114.323 24.1871 114.545C24.3462 114.766 24.549 114.953 24.7829 115.093L24.8183 115.113L30.8296 118.386L34.8689 122.425L38.1464 128.432L38.1658 128.467C38.3061 128.701 38.4928 128.904 38.7144 129.063C38.9359 129.222 39.1877 129.334 39.4542 129.393C39.7207 129.451 39.9963 129.454 40.264 129.402C40.5318 129.349 40.786 129.243 41.011 129.089L50.2361 122.766C50.6095 122.517 50.8866 122.148 51.0216 121.72C51.1567 121.292 51.1415 120.83 50.9786 120.412C50.8778 120.14 50.7202 119.893 50.5163 119.688C50.2711 119.443 49.9646 119.268 49.6289 119.182L53.3553 115.456C54.293 114.518 54.8198 113.246 54.8198 111.92C54.8198 110.594 54.293 109.322 53.3553 108.385L44.8701 99.8995C43.9324 98.9618 42.6606 98.435 41.3345 98.435C40.0084 98.435 38.7367 98.9618 37.799 99.8995L34.0734 103.625C33.9874 103.29 33.8131 102.984 33.5687 102.739C33.3632 102.534 33.1164 102.376 32.8448 102.274C32.426 102.111 31.9641 102.096 31.5355 102.232C31.1069 102.367 30.7375 102.645 30.4884 103.019ZM49.1127 121.113L39.8823 127.439L37.2572 122.627L49.1127 121.113ZM43.4558 101.314L46.9914 104.849L45.8697 105.971L43.4558 105.97C43.1905 105.97 42.936 106.075 42.7483 106.263C42.5607 106.451 42.4553 106.705 42.4553 106.971C42.4553 107.236 42.5607 107.49 42.7483 107.678C42.936 107.866 43.1905 107.971 43.4558 107.971L45.2846 107.97L45.2837 109.799C45.2837 110.064 45.3891 110.319 45.5768 110.506C45.7644 110.694 46.0189 110.8 46.2843 110.8C46.5496 110.8 46.8041 110.694 46.9918 110.506C47.1794 110.319 47.2848 110.064 47.2848 109.799L47.2839 107.385L48.4056 106.263L51.9411 109.799C52.5037 110.362 52.8198 111.125 52.8198 111.92C52.8198 112.716 52.5037 113.479 51.9411 114.042L46.5592 119.424L36.0383 120.766L32.4895 117.217L33.8312 106.696L39.2132 101.314C39.7758 100.751 40.5389 100.435 41.3345 100.435C42.1302 100.435 42.8932 100.751 43.4558 101.314ZM32.1421 104.142L30.628 115.998L25.8162 113.373L32.1421 104.142ZM43.8094 113.688C44.0192 113.478 44.2865 113.335 44.5774 113.278C44.8684 113.22 45.17 113.249 45.4441 113.363C45.7182 113.476 45.9524 113.669 46.1173 113.915C46.2821 114.162 46.3701 114.452 46.3701 114.749C46.3701 115.045 46.2821 115.335 46.1173 115.582C45.9524 115.829 45.7182 116.021 45.4441 116.135C45.17 116.248 44.8684 116.278 44.5774 116.22C44.2865 116.162 44.0192 116.019 43.8094 115.809C43.5281 115.528 43.3701 115.147 43.3701 114.749C43.3701 114.351 43.5281 113.969 43.8094 113.688ZM37.4454 107.324C37.6552 107.114 37.9225 106.971 38.2135 106.914C38.5044 106.856 38.806 106.885 39.0801 106.999C39.3542 107.112 39.5885 107.305 39.7533 107.551C39.9181 107.798 40.0061 108.088 40.0061 108.385C40.0061 108.681 39.9181 108.971 39.7533 109.218C39.5885 109.465 39.3542 109.657 39.0801 109.771C38.806 109.884 38.5044 109.914 38.2135 109.856C37.9225 109.798 37.6552 109.655 37.4454 109.445C37.1641 109.164 37.0061 108.783 37.0061 108.385C37.0061 107.987 37.1641 107.605 37.4454 107.324Z" fill="white"/>
</g>
<g clip-path="url(#clip3_2_4)">
<path d="M84.992 28.6387C85.1579 28.8847 85.2471 29.1743 85.2484 29.471C85.2497 29.7677 85.163 30.058 84.9992 30.3054C84.8355 30.5528 84.6021 30.7461 84.3285 30.8608C84.0549 30.9756 83.7534 31.0066 83.4622 30.95C83.171 30.8934 82.9031 30.7517 82.6924 30.5428C82.4817 30.3339 82.3377 30.0673 82.2785 29.7766C82.2194 29.4859 82.2478 29.1841 82.3601 28.9096C82.4724 28.635 82.6637 28.3999 82.9096 28.234C83.2394 28.0115 83.6441 27.9292 84.0346 28.0051C84.4251 28.081 84.7695 28.3089 84.992 28.6387ZM84.0425 38.6047C83.9119 38.5911 83.7799 38.6034 83.654 38.6409C83.5281 38.6783 83.4109 38.7402 83.3089 38.823C83.207 38.9058 83.1223 39.0078 83.0598 39.1233C82.9973 39.2388 82.9581 39.3655 82.9445 39.4961L82.1545 47.2663C82.1278 47.5302 82.207 47.794 82.3748 47.9995C82.5425 48.205 82.7851 48.3355 83.049 48.3622C83.313 48.3889 83.5767 48.3097 83.7822 48.1419C83.9877 47.9742 84.1182 47.7316 84.1449 47.4677L84.935 39.6975C84.9609 39.4344 84.8816 39.1717 84.7143 38.9669C84.5471 38.7621 84.3055 38.6319 84.0425 38.6047ZM92.4631 25.4088C92.5552 25.5452 92.6123 25.7023 92.6291 25.8661C92.646 26.03 92.6221 26.1954 92.5597 26.3478L91.3935 29.1879L92.7719 31.2315C94.6963 34.091 95.4077 37.5971 94.75 40.9805C94.0923 44.3638 92.1193 47.3481 89.2639 49.2785L78.4864 56.548C78.3303 56.6535 78.1475 56.7127 77.9591 56.7188C77.7708 56.7249 77.5845 56.6777 77.4218 56.5825C77.2592 56.4874 77.1267 56.3482 77.0397 56.181C76.9527 56.0139 76.9147 55.8255 76.9301 55.6377L78.4623 36.8411L77.2608 35.0597C76.2576 33.5754 75.8188 31.781 76.0239 30.0012C76.229 28.2215 77.0645 26.5739 78.379 25.3567C79.6936 24.1395 81.4004 23.4331 83.1907 23.3653C84.981 23.2975 86.7364 23.8727 88.1392 24.987L91.6286 24.9674C91.7933 24.9666 91.9556 25.0064 92.1012 25.0834C92.2468 25.1604 92.3711 25.2722 92.4631 25.4088ZM90.1397 26.9759L87.7836 26.9879C87.5381 26.9895 87.3005 26.9007 87.1163 26.7385C86.113 25.8522 84.8209 25.3623 83.4823 25.3605C82.1436 25.3588 80.8503 25.8453 79.8447 26.7289C78.8391 27.6125 78.1902 28.8325 78.0198 30.1603C77.8493 31.488 78.169 32.8324 78.9189 33.9413L80.3168 36.0139C80.444 36.2021 80.5033 36.428 80.485 36.6544L79.0925 53.7268L88.1455 47.6204C90.5615 45.9869 92.2308 43.4617 92.7872 40.5989C93.3437 37.7362 92.7419 34.7695 91.1138 32.3499L89.4363 29.8628C89.3441 29.7263 89.287 29.5692 89.2702 29.4054C89.2533 29.2416 89.2772 29.0762 89.3396 28.9238L90.1397 26.9759Z" fill="white"/>
</g>
<g clip-path="url(#clip4_2_4)">
<path d="M26.0661 63.2626C25.779 63.1879 25.5204 63.0298 25.3232 62.8082C25.1259 62.5866 24.9988 62.3115 24.9579 62.0177C24.917 61.7238 24.9641 61.4245 25.0934 61.1574C25.2226 60.8904 25.4281 60.6676 25.6839 60.5174C25.9397 60.3672 26.2344 60.2961 26.5305 60.3134C26.8267 60.3306 27.1111 60.4352 27.3478 60.614C27.5845 60.7929 27.7629 61.0379 27.8603 61.3181C27.9578 61.5983 27.9699 61.9012 27.8953 62.1883C27.7952 62.5733 27.5462 62.9028 27.2032 63.1043C26.8601 63.3057 26.4511 63.3627 26.0661 63.2626ZM25.1273 72.8343C25.202 72.5472 25.1898 72.2444 25.0924 71.9642C24.9949 71.684 24.8166 71.4389 24.5799 71.2601C24.3432 71.0812 24.0587 70.9766 23.7626 70.9594C23.4664 70.9422 23.1718 71.0132 22.9159 71.1634C22.6601 71.3137 22.4546 71.5364 22.3254 71.8035C22.1961 72.0705 22.149 72.3699 22.1899 72.6637C22.2308 72.9575 22.3579 73.2327 22.5552 73.4542C22.7525 73.6758 23.011 73.834 23.2981 73.9086C23.6832 74.0087 24.0922 73.9518 24.4352 73.7503C24.7783 73.5488 25.0272 73.2193 25.1273 72.8343ZM32.9183 82.6093L22.2722 79.8414C15.8689 78.1765 12.1257 71.1781 13.9296 64.2401C15.7335 57.302 22.4114 53.0131 28.8147 54.678L39.4608 57.4459C39.8434 57.5456 40.1879 57.7565 40.4508 58.0519C40.7136 58.3473 40.883 58.7141 40.9375 59.1057C40.992 59.4974 40.9292 59.8964 40.757 60.2523C40.5848 60.6083 40.3109 60.9052 39.97 61.1056C39.9487 61.1181 39.9292 61.1286 39.9085 61.1387L36.9565 62.6069C37.7413 65.0969 37.8092 67.7576 37.1522 70.2844C36.4952 72.8112 35.14 75.1019 33.2418 76.8943L35.1079 79.6023C35.1211 79.6212 35.133 79.6398 35.1456 79.6612C35.3457 80.0022 35.4403 80.3949 35.4173 80.7897C35.3943 81.1844 35.2548 81.5635 35.0164 81.879C34.7781 82.1946 34.4515 82.4323 34.0781 82.5623C33.7046 82.6923 33.301 82.7087 32.9183 82.6093ZM33.4216 80.6737L31.0995 77.2853C30.9564 77.0778 30.8969 76.8239 30.9331 76.5744C30.9692 76.3249 31.0982 76.0982 31.2943 75.9398C31.8844 75.4629 32.4241 74.9268 32.905 74.3399L30.0922 73.6086C29.8356 73.5418 29.6159 73.3759 29.4816 73.1472C29.3473 72.9185 29.3093 72.6458 29.3761 72.3891C29.4428 72.1324 29.6088 71.9128 29.8375 71.7785C30.0661 71.6442 30.3388 71.6062 30.5955 71.6729L34.0978 72.5835C34.4262 71.9911 34.7046 71.3722 34.9301 70.7334L31.0988 69.7373C30.8421 69.6706 30.6224 69.5046 30.4881 69.2759C30.3538 69.0472 30.3159 68.7745 30.3826 68.5178C30.4493 68.2612 30.6153 68.0415 30.844 67.9072C31.0727 67.7729 31.3454 67.7349 31.602 67.8016L35.4334 68.7978C35.5476 68.1301 35.6059 67.454 35.6076 66.7766L32.1053 65.866C31.8486 65.7993 31.629 65.6333 31.4947 65.4046C31.3604 65.1759 31.3224 64.9032 31.3891 64.6465C31.4559 64.3899 31.6218 64.1702 31.8505 64.0359C32.0792 63.9016 32.3519 63.8636 32.6086 63.9304L35.4213 64.6617C35.2872 63.9149 35.077 63.1838 34.7939 62.4798C34.6993 62.2463 34.6963 61.9856 34.7856 61.75C34.8749 61.5143 35.0498 61.3211 35.2755 61.2089L38.9575 59.3816L28.3115 56.6136C23.2715 55.3032 18.0096 58.4827 16.1568 63.7859L18.6199 64.4263L20.7021 63.2034C20.8154 63.1369 20.9407 63.0934 21.0708 63.0754C21.2009 63.0573 21.3332 63.0651 21.4603 63.0982C21.5874 63.1313 21.7068 63.1891 21.8115 63.2683C21.9163 63.3476 22.0044 63.4466 22.0708 63.5599C22.2051 63.7887 22.2429 64.0614 22.1761 64.3181C22.143 64.4452 22.0851 64.5645 22.0059 64.6693C21.9267 64.774 21.8276 64.8622 21.7143 64.9286L20.1382 65.8543L21.0639 67.4304C21.1304 67.5437 21.174 67.6689 21.1922 67.799C21.2104 67.929 21.2027 68.0614 21.1697 68.1885C21.1368 68.3157 21.079 68.435 20.9999 68.5399C20.9208 68.6447 20.8218 68.7329 20.7086 68.7995C20.5953 68.866 20.4701 68.9096 20.34 68.9278C20.21 68.946 20.0776 68.9383 19.9505 68.9053C19.8233 68.8724 19.704 68.8146 19.5991 68.7355C19.4943 68.6564 19.4061 68.5574 19.3395 68.4442L18.1167 66.3619L15.6535 65.7215C14.6911 71.2562 17.7344 76.595 22.7755 77.9057L33.4216 80.6737Z" fill="white"/>
</g>
<path d="M44.7562 162.166C44.4611 162.196 44.1636 162.138 43.9013 162C43.6389 161.861 43.4236 161.648 43.2825 161.387C43.1413 161.126 43.0807 160.829 43.1084 160.534C43.136 160.238 43.2506 159.958 43.4377 159.728C43.6248 159.497 43.8759 159.328 44.1594 159.24C44.4429 159.153 44.7459 159.151 45.0302 159.236C45.3145 159.321 45.5673 159.488 45.7567 159.716C45.946 159.945 46.0634 160.224 46.0939 160.519C46.1348 160.915 46.0169 161.311 45.766 161.619C45.5152 161.928 45.1519 162.125 44.7562 162.166ZM36.4115 156.635C36.485 156.526 36.5364 156.404 36.5626 156.275C36.5888 156.146 36.5895 156.014 36.5645 155.885C36.5395 155.756 36.4893 155.633 36.4169 155.524C36.3444 155.414 36.2511 155.32 36.1423 155.246L29.6596 150.89C29.4393 150.742 29.1694 150.688 28.909 150.739C28.6487 150.791 28.4194 150.943 28.2716 151.163C28.1237 151.384 28.0694 151.654 28.1206 151.914C28.1718 152.174 28.3243 152.404 28.5446 152.551L35.0273 156.907C35.2472 157.054 35.5163 157.108 35.7757 157.057C36.0351 157.006 36.2637 156.854 36.4115 156.635ZM44.0874 170.277C43.9236 170.294 43.7581 170.271 43.6056 170.208C43.4532 170.146 43.3185 170.047 43.2135 169.92L41.2571 167.554L38.8052 167.808C35.3764 168.159 31.9484 167.135 29.2734 164.962C26.5984 162.788 24.8948 159.643 24.5365 156.215L23.1988 143.284C23.1793 143.096 23.2132 142.907 23.2965 142.738C23.3798 142.569 23.5092 142.427 23.6697 142.328C23.8303 142.229 24.0154 142.178 24.2039 142.18C24.3923 142.182 24.5764 142.237 24.7348 142.339L40.5952 152.543L42.7325 152.321C44.5144 152.135 46.304 152.593 47.7774 153.612C49.2509 154.632 50.3109 156.144 50.7657 157.877C51.2204 159.61 51.0398 161.449 50.2566 163.06C49.4733 164.671 48.1392 165.949 46.4956 166.662L44.8696 169.749C44.7928 169.895 44.6812 170.019 44.5448 170.111C44.4083 170.204 44.2512 170.261 44.0874 170.277ZM43.799 167.49L44.8979 165.406C45.0121 165.188 45.2023 165.021 45.4322 164.934C46.6865 164.467 47.7271 163.558 48.3591 162.377C48.9911 161.197 49.1709 159.827 48.865 158.524C48.5591 157.221 47.7883 156.074 46.6973 155.298C45.6062 154.523 44.2697 154.172 42.9383 154.311L40.4516 154.568C40.2257 154.592 39.9985 154.538 39.8074 154.415L25.4022 145.147L26.5259 156.009C26.8293 158.909 28.2708 161.571 30.5342 163.41C32.7977 165.249 35.6982 166.115 38.5994 165.818L41.5835 165.51C41.7473 165.493 41.9127 165.516 42.0652 165.579C42.2176 165.641 42.3523 165.74 42.4573 165.867L43.799 167.49Z" fill="white"/>
</g>
<defs>
<clipPath id="clip0_2_4">
<rect width="68" height="177" fill="white"/>
</clipPath>
<clipPath id="clip1_2_4">
<rect width="32" height="32" fill="white" transform="translate(25 35.7614) rotate(-64)"/>
</clipPath>
<clipPath id="clip2_2_4">
<rect width="32" height="32" fill="white" transform="translate(40.6274 135.255) rotate(-135)"/>
</clipPath>
<clipPath id="clip3_2_4">
<rect width="32" height="32" fill="white" transform="translate(62 33.8942) rotate(-34)"/>
</clipPath>
<clipPath id="clip4_2_4">
<rect width="32" height="32" fill="white" transform="translate(46.0226 56.0523) rotate(104.574)"/>
</clipPath>
</defs>
</svg>
